<mxfile host="app.diagrams.net" modified="2022-05-13T11:23:02.617Z" agent="5.0 (Windows NT 10.0; Win64; x64) AppleWebKit/537.36 (KHTML, like Gecko) Chrome/101.0.4951.54 Safari/537.36" etag="w8UKB9FlVHkc-50hghcP" version="17.4.2" type="github">
  <diagram id="NHO0uS4iVRwV-VCyoB6L" name="Page-1">
    <mxGraphModel dx="2558" dy="655" grid="1" gridSize="10" guides="1" tooltips="1" connect="1" arrows="1" fold="1" page="1" pageScale="1" pageWidth="1200" pageHeight="1600" math="0" shadow="0">
      <root>
        <mxCell id="0" />
        <mxCell id="1" parent="0" />
        <mxCell id="Czym6EZmPw_4Vy8k2Iwa-1" value="" style="whiteSpace=wrap;html=1;aspect=fixed;" vertex="1" parent="1">
          <mxGeometry y="370" width="80" height="80" as="geometry" />
        </mxCell>
        <mxCell id="Czym6EZmPw_4Vy8k2Iwa-2" value="" style="whiteSpace=wrap;html=1;aspect=fixed;" vertex="1" parent="1">
          <mxGeometry x="90" y="360" width="80" height="80" as="geometry" />
        </mxCell>
        <mxCell id="Czym6EZmPw_4Vy8k2Iwa-3" value="" style="whiteSpace=wrap;html=1;aspect=fixed;" vertex="1" parent="1">
          <mxGeometry x="180" y="360" width="80" height="80" as="geometry" />
        </mxCell>
        <mxCell id="Czym6EZmPw_4Vy8k2Iwa-4" value="" style="whiteSpace=wrap;html=1;aspect=fixed;" vertex="1" parent="1">
          <mxGeometry x="270" y="360" width="80" height="80" as="geometry" />
        </mxCell>
        <mxCell id="Czym6EZmPw_4Vy8k2Iwa-5" value="" style="whiteSpace=wrap;html=1;aspect=fixed;" vertex="1" parent="1">
          <mxGeometry x="360" y="360" width="80" height="80" as="geometry" />
        </mxCell>
        <mxCell id="Czym6EZmPw_4Vy8k2Iwa-6" value="" style="whiteSpace=wrap;html=1;aspect=fixed;" vertex="1" parent="1">
          <mxGeometry x="760" y="360" width="80" height="80" as="geometry" />
        </mxCell>
        <mxCell id="Czym6EZmPw_4Vy8k2Iwa-7" value="" style="whiteSpace=wrap;html=1;aspect=fixed;" vertex="1" parent="1">
          <mxGeometry x="850" y="360" width="80" height="80" as="geometry" />
        </mxCell>
        <mxCell id="Czym6EZmPw_4Vy8k2Iwa-8" value="" style="whiteSpace=wrap;html=1;aspect=fixed;" vertex="1" parent="1">
          <mxGeometry x="940" y="360" width="80" height="80" as="geometry" />
        </mxCell>
        <mxCell id="Czym6EZmPw_4Vy8k2Iwa-9" value="" style="whiteSpace=wrap;html=1;aspect=fixed;" vertex="1" parent="1">
          <mxGeometry x="1030" y="360" width="80" height="80" as="geometry" />
        </mxCell>
        <mxCell id="Czym6EZmPw_4Vy8k2Iwa-10" value="" style="whiteSpace=wrap;html=1;aspect=fixed;" vertex="1" parent="1">
          <mxGeometry x="1120" y="370" width="80" height="80" as="geometry" />
        </mxCell>
        <mxCell id="Czym6EZmPw_4Vy8k2Iwa-11" value="" style="whiteSpace=wrap;html=1;aspect=fixed;" vertex="1" parent="1">
          <mxGeometry x="760" y="450" width="80" height="80" as="geometry" />
        </mxCell>
        <mxCell id="Czym6EZmPw_4Vy8k2Iwa-12" value="" style="whiteSpace=wrap;html=1;aspect=fixed;" vertex="1" parent="1">
          <mxGeometry x="850" y="450" width="80" height="80" as="geometry" />
        </mxCell>
        <mxCell id="Czym6EZmPw_4Vy8k2Iwa-13" value="" style="whiteSpace=wrap;html=1;aspect=fixed;" vertex="1" parent="1">
          <mxGeometry x="940" y="450" width="80" height="80" as="geometry" />
        </mxCell>
        <mxCell id="Czym6EZmPw_4Vy8k2Iwa-14" value="" style="whiteSpace=wrap;html=1;aspect=fixed;" vertex="1" parent="1">
          <mxGeometry x="1030" y="450" width="80" height="80" as="geometry" />
        </mxCell>
        <mxCell id="Czym6EZmPw_4Vy8k2Iwa-15" value="" style="whiteSpace=wrap;html=1;aspect=fixed;" vertex="1" parent="1">
          <mxGeometry x="1120" y="460" width="80" height="80" as="geometry" />
        </mxCell>
        <mxCell id="Czym6EZmPw_4Vy8k2Iwa-23" value="" style="whiteSpace=wrap;html=1;aspect=fixed;" vertex="1" parent="1">
          <mxGeometry y="460" width="80" height="80" as="geometry" />
        </mxCell>
        <mxCell id="Czym6EZmPw_4Vy8k2Iwa-24" value="" style="whiteSpace=wrap;html=1;aspect=fixed;" vertex="1" parent="1">
          <mxGeometry x="90" y="450" width="80" height="80" as="geometry" />
        </mxCell>
        <mxCell id="Czym6EZmPw_4Vy8k2Iwa-25" value="" style="whiteSpace=wrap;html=1;aspect=fixed;" vertex="1" parent="1">
          <mxGeometry x="180" y="450" width="80" height="80" as="geometry" />
        </mxCell>
        <mxCell id="Czym6EZmPw_4Vy8k2Iwa-26" value="" style="whiteSpace=wrap;html=1;aspect=fixed;" vertex="1" parent="1">
          <mxGeometry x="270" y="450" width="80" height="80" as="geometry" />
        </mxCell>
        <mxCell id="Czym6EZmPw_4Vy8k2Iwa-27" value="" style="whiteSpace=wrap;html=1;aspect=fixed;" vertex="1" parent="1">
          <mxGeometry x="360" y="450" width="80" height="80" as="geometry" />
        </mxCell>
        <mxCell id="Czym6EZmPw_4Vy8k2Iwa-28" value="" style="whiteSpace=wrap;html=1;aspect=fixed;" vertex="1" parent="1">
          <mxGeometry y="550" width="80" height="80" as="geometry" />
        </mxCell>
        <mxCell id="Czym6EZmPw_4Vy8k2Iwa-29" value="" style="whiteSpace=wrap;html=1;aspect=fixed;" vertex="1" parent="1">
          <mxGeometry x="90" y="540" width="80" height="80" as="geometry" />
        </mxCell>
        <mxCell id="Czym6EZmPw_4Vy8k2Iwa-30" value="" style="whiteSpace=wrap;html=1;aspect=fixed;" vertex="1" parent="1">
          <mxGeometry x="180" y="540" width="80" height="80" as="geometry" />
        </mxCell>
        <mxCell id="Czym6EZmPw_4Vy8k2Iwa-31" value="" style="whiteSpace=wrap;html=1;aspect=fixed;" vertex="1" parent="1">
          <mxGeometry x="270" y="540" width="80" height="80" as="geometry" />
        </mxCell>
        <mxCell id="Czym6EZmPw_4Vy8k2Iwa-32" value="" style="whiteSpace=wrap;html=1;aspect=fixed;" vertex="1" parent="1">
          <mxGeometry x="360" y="540" width="80" height="80" as="geometry" />
        </mxCell>
        <mxCell id="Czym6EZmPw_4Vy8k2Iwa-33" value="" style="whiteSpace=wrap;html=1;aspect=fixed;" vertex="1" parent="1">
          <mxGeometry x="760" y="540" width="80" height="80" as="geometry" />
        </mxCell>
        <mxCell id="Czym6EZmPw_4Vy8k2Iwa-34" value="" style="whiteSpace=wrap;html=1;aspect=fixed;" vertex="1" parent="1">
          <mxGeometry x="850" y="540" width="80" height="80" as="geometry" />
        </mxCell>
        <mxCell id="Czym6EZmPw_4Vy8k2Iwa-35" value="" style="whiteSpace=wrap;html=1;aspect=fixed;" vertex="1" parent="1">
          <mxGeometry x="940" y="540" width="80" height="80" as="geometry" />
        </mxCell>
        <mxCell id="Czym6EZmPw_4Vy8k2Iwa-36" value="" style="whiteSpace=wrap;html=1;aspect=fixed;" vertex="1" parent="1">
          <mxGeometry x="1030" y="540" width="80" height="80" as="geometry" />
        </mxCell>
        <mxCell id="Czym6EZmPw_4Vy8k2Iwa-37" value="" style="whiteSpace=wrap;html=1;aspect=fixed;" vertex="1" parent="1">
          <mxGeometry x="1120" y="550" width="80" height="80" as="geometry" />
        </mxCell>
        <mxCell id="Czym6EZmPw_4Vy8k2Iwa-38" value="" style="rounded=0;whiteSpace=wrap;html=1;rotation=30;" vertex="1" parent="1">
          <mxGeometry x="282" y="705" width="80" height="170" as="geometry" />
        </mxCell>
        <mxCell id="Czym6EZmPw_4Vy8k2Iwa-39" value="" style="rounded=0;whiteSpace=wrap;html=1;rotation=30;" vertex="1" parent="1">
          <mxGeometry x="358" y="749" width="80" height="170" as="geometry" />
        </mxCell>
        <mxCell id="Czym6EZmPw_4Vy8k2Iwa-40" value="" style="whiteSpace=wrap;html=1;aspect=fixed;rotation=30;" vertex="1" parent="1">
          <mxGeometry x="501" y="723" width="80" height="80" as="geometry" />
        </mxCell>
        <mxCell id="Czym6EZmPw_4Vy8k2Iwa-41" value="" style="whiteSpace=wrap;html=1;aspect=fixed;rotation=30;" vertex="1" parent="1">
          <mxGeometry x="413" y="879" width="80" height="80" as="geometry" />
        </mxCell>
        <mxCell id="Czym6EZmPw_4Vy8k2Iwa-42" value="" style="whiteSpace=wrap;html=1;aspect=fixed;rotation=30;" vertex="1" parent="1">
          <mxGeometry x="458" y="799" width="80" height="80" as="geometry" />
        </mxCell>
        <mxCell id="Czym6EZmPw_4Vy8k2Iwa-43" value="" style="whiteSpace=wrap;html=1;aspect=fixed;rotation=30;" vertex="1" parent="1">
          <mxGeometry x="426" y="680" width="80" height="80" as="geometry" />
        </mxCell>
        <mxCell id="Czym6EZmPw_4Vy8k2Iwa-44" value="" style="rounded=0;whiteSpace=wrap;html=1;rotation=-30;" vertex="1" parent="1">
          <mxGeometry x="838" y="705" width="80" height="170" as="geometry" />
        </mxCell>
        <mxCell id="Czym6EZmPw_4Vy8k2Iwa-45" value="" style="rounded=0;whiteSpace=wrap;html=1;rotation=-30;" vertex="1" parent="1">
          <mxGeometry x="763" y="749" width="80" height="170" as="geometry" />
        </mxCell>
        <mxCell id="Czym6EZmPw_4Vy8k2Iwa-46" value="" style="whiteSpace=wrap;html=1;aspect=fixed;rotation=-30;" vertex="1" parent="1">
          <mxGeometry x="621" y="723" width="80" height="80" as="geometry" />
        </mxCell>
        <mxCell id="Czym6EZmPw_4Vy8k2Iwa-47" value="" style="whiteSpace=wrap;html=1;aspect=fixed;rotation=-30;" vertex="1" parent="1">
          <mxGeometry x="665" y="799" width="80" height="80" as="geometry" />
        </mxCell>
        <mxCell id="Czym6EZmPw_4Vy8k2Iwa-48" value="" style="whiteSpace=wrap;html=1;aspect=fixed;rotation=-30;" vertex="1" parent="1">
          <mxGeometry x="709" y="875" width="80" height="80" as="geometry" />
        </mxCell>
        <mxCell id="Czym6EZmPw_4Vy8k2Iwa-49" value="" style="whiteSpace=wrap;html=1;aspect=fixed;rotation=-30;" vertex="1" parent="1">
          <mxGeometry x="696" y="680" width="80" height="80" as="geometry" />
        </mxCell>
        <mxCell id="Czym6EZmPw_4Vy8k2Iwa-51" value="&lt;font style=&quot;font-size: 36px&quot;&gt;&lt;b&gt;&amp;lt;&lt;br&gt;,&lt;/b&gt;&lt;/font&gt;" style="text;html=1;strokeColor=none;fillColor=none;align=center;verticalAlign=middle;whiteSpace=wrap;rounded=0;" vertex="1" parent="1">
          <mxGeometry x="90" y="360" width="80" height="80" as="geometry" />
        </mxCell>
        <mxCell id="Czym6EZmPw_4Vy8k2Iwa-52" value="&lt;span style=&quot;font-size: 36px&quot;&gt;&lt;b&gt;&amp;gt;&lt;br&gt;.&lt;br&gt;&lt;/b&gt;&lt;/span&gt;" style="text;html=1;strokeColor=none;fillColor=none;align=center;verticalAlign=middle;whiteSpace=wrap;rounded=0;" vertex="1" parent="1">
          <mxGeometry x="180" y="360" width="80" height="80" as="geometry" />
        </mxCell>
        <mxCell id="Czym6EZmPw_4Vy8k2Iwa-53" value="&lt;span style=&quot;font-size: 36px&quot;&gt;&lt;b&gt;:&lt;br&gt;;&lt;br&gt;&lt;/b&gt;&lt;/span&gt;" style="text;html=1;strokeColor=none;fillColor=none;align=center;verticalAlign=middle;whiteSpace=wrap;rounded=0;" vertex="1" parent="1">
          <mxGeometry y="370" width="80" height="80" as="geometry" />
        </mxCell>
        <mxCell id="Czym6EZmPw_4Vy8k2Iwa-54" value="&lt;span style=&quot;font-size: 36px&quot;&gt;&lt;b&gt;P 4&lt;/b&gt;&lt;br&gt;&lt;/span&gt;" style="text;html=1;strokeColor=none;fillColor=none;align=center;verticalAlign=middle;whiteSpace=wrap;rounded=0;" vertex="1" parent="1">
          <mxGeometry x="270" y="360" width="80" height="80" as="geometry" />
        </mxCell>
        <mxCell id="Czym6EZmPw_4Vy8k2Iwa-60" value="&lt;span style=&quot;font-size: 36px&quot;&gt;&lt;b&gt;&amp;nbsp; &amp;nbsp; 3&lt;/b&gt;&lt;br&gt;&lt;/span&gt;" style="text;html=1;strokeColor=none;fillColor=none;align=center;verticalAlign=middle;whiteSpace=wrap;rounded=0;" vertex="1" parent="1">
          <mxGeometry x="180" y="360" width="80" height="80" as="geometry" />
        </mxCell>
        <mxCell id="Czym6EZmPw_4Vy8k2Iwa-61" value="&lt;span style=&quot;font-size: 36px&quot;&gt;&lt;b&gt;O [&lt;/b&gt;&lt;/span&gt;" style="text;html=1;strokeColor=none;fillColor=none;align=center;verticalAlign=middle;whiteSpace=wrap;rounded=0;" vertex="1" parent="1">
          <mxGeometry x="86" y="450" width="80" height="80" as="geometry" />
        </mxCell>
        <mxCell id="Czym6EZmPw_4Vy8k2Iwa-62" value="&lt;span style=&quot;font-size: 36px&quot;&gt;&lt;b&gt;E {&lt;br&gt;&lt;/b&gt;&lt;/span&gt;" style="text;html=1;strokeColor=none;fillColor=none;align=center;verticalAlign=middle;whiteSpace=wrap;rounded=0;" vertex="1" parent="1">
          <mxGeometry x="176" y="450" width="80" height="80" as="geometry" />
        </mxCell>
        <mxCell id="Czym6EZmPw_4Vy8k2Iwa-63" value="&lt;span style=&quot;font-size: 36px&quot;&gt;&lt;b&gt;A &amp;amp;&lt;br&gt;&lt;/b&gt;&lt;/span&gt;" style="text;html=1;strokeColor=none;fillColor=none;align=center;verticalAlign=middle;whiteSpace=wrap;rounded=0;" vertex="1" parent="1">
          <mxGeometry x="-4" y="460" width="80" height="80" as="geometry" />
        </mxCell>
        <mxCell id="Czym6EZmPw_4Vy8k2Iwa-64" value="&lt;span style=&quot;font-size: 36px&quot;&gt;&lt;b&gt;U (&lt;/b&gt;&lt;br&gt;&lt;/span&gt;" style="text;html=1;strokeColor=none;fillColor=none;align=center;verticalAlign=middle;whiteSpace=wrap;rounded=0;" vertex="1" parent="1">
          <mxGeometry x="266" y="450" width="80" height="80" as="geometry" />
        </mxCell>
        <mxCell id="Czym6EZmPw_4Vy8k2Iwa-65" value="&lt;span style=&quot;font-size: 36px&quot;&gt;&lt;b&gt;I&amp;nbsp; !&lt;/b&gt;&lt;br&gt;&lt;/span&gt;" style="text;html=1;strokeColor=none;fillColor=none;align=center;verticalAlign=middle;whiteSpace=wrap;rounded=0;" vertex="1" parent="1">
          <mxGeometry x="358" y="450" width="80" height="80" as="geometry" />
        </mxCell>
        <mxCell id="Czym6EZmPw_4Vy8k2Iwa-66" value="&lt;span style=&quot;font-size: 36px&quot;&gt;&lt;b&gt;Q -&lt;/b&gt;&lt;/span&gt;" style="text;html=1;strokeColor=none;fillColor=none;align=center;verticalAlign=middle;whiteSpace=wrap;rounded=0;" vertex="1" parent="1">
          <mxGeometry x="90" y="540" width="80" height="80" as="geometry" />
        </mxCell>
        <mxCell id="Czym6EZmPw_4Vy8k2Iwa-67" value="&lt;span style=&quot;font-size: 36px&quot;&gt;&lt;b&gt;J *&lt;br&gt;&lt;/b&gt;&lt;/span&gt;" style="text;html=1;strokeColor=none;fillColor=none;align=center;verticalAlign=middle;whiteSpace=wrap;rounded=0;" vertex="1" parent="1">
          <mxGeometry x="180" y="540" width="80" height="80" as="geometry" />
        </mxCell>
        <mxCell id="Czym6EZmPw_4Vy8k2Iwa-68" value="&lt;span style=&quot;font-size: 36px&quot;&gt;&lt;b&gt;&quot;&lt;br&gt;&#39;&lt;br&gt;&lt;/b&gt;&lt;/span&gt;" style="text;html=1;strokeColor=none;fillColor=none;align=center;verticalAlign=middle;whiteSpace=wrap;rounded=0;" vertex="1" parent="1">
          <mxGeometry x="-10" y="550" width="80" height="80" as="geometry" />
        </mxCell>
        <mxCell id="Czym6EZmPw_4Vy8k2Iwa-69" value="&lt;span style=&quot;font-size: 36px&quot;&gt;&lt;b&gt;K /&lt;/b&gt;&lt;br&gt;&lt;/span&gt;" style="text;html=1;strokeColor=none;fillColor=none;align=center;verticalAlign=middle;whiteSpace=wrap;rounded=0;" vertex="1" parent="1">
          <mxGeometry x="270" y="540" width="80" height="80" as="geometry" />
        </mxCell>
        <mxCell id="Czym6EZmPw_4Vy8k2Iwa-70" value="&lt;span style=&quot;font-size: 36px&quot;&gt;&lt;b&gt;X ?&lt;/b&gt;&lt;br&gt;&lt;/span&gt;" style="text;html=1;strokeColor=none;fillColor=none;align=center;verticalAlign=middle;whiteSpace=wrap;rounded=0;" vertex="1" parent="1">
          <mxGeometry x="362" y="540" width="80" height="80" as="geometry" />
        </mxCell>
        <mxCell id="Czym6EZmPw_4Vy8k2Iwa-71" value="&lt;span style=&quot;font-size: 36px&quot;&gt;&lt;b&gt;Y 5&lt;/b&gt;&lt;br&gt;&lt;/span&gt;" style="text;html=1;strokeColor=none;fillColor=none;align=center;verticalAlign=middle;whiteSpace=wrap;rounded=0;" vertex="1" parent="1">
          <mxGeometry x="360" y="360" width="80" height="80" as="geometry" />
        </mxCell>
        <mxCell id="Czym6EZmPw_4Vy8k2Iwa-72" value="&lt;span style=&quot;font-size: 36px&quot;&gt;&lt;b&gt;&amp;nbsp; &amp;nbsp; 2&lt;/b&gt;&lt;br&gt;&lt;/span&gt;" style="text;html=1;strokeColor=none;fillColor=none;align=center;verticalAlign=middle;whiteSpace=wrap;rounded=0;" vertex="1" parent="1">
          <mxGeometry x="90" y="360" width="80" height="80" as="geometry" />
        </mxCell>
        <mxCell id="Czym6EZmPw_4Vy8k2Iwa-73" value="&lt;span style=&quot;font-size: 36px&quot;&gt;&lt;b&gt;&amp;nbsp; &amp;nbsp; 1&lt;/b&gt;&lt;br&gt;&lt;/span&gt;" style="text;html=1;strokeColor=none;fillColor=none;align=center;verticalAlign=middle;whiteSpace=wrap;rounded=0;" vertex="1" parent="1">
          <mxGeometry y="370" width="80" height="80" as="geometry" />
        </mxCell>
        <mxCell id="Czym6EZmPw_4Vy8k2Iwa-74" value="&lt;span style=&quot;font-size: 36px&quot;&gt;&lt;b&gt;&amp;nbsp; &amp;nbsp; +&lt;/b&gt;&lt;br&gt;&lt;/span&gt;" style="text;html=1;strokeColor=none;fillColor=none;align=center;verticalAlign=middle;whiteSpace=wrap;rounded=0;" vertex="1" parent="1">
          <mxGeometry x="6" y="550" width="80" height="80" as="geometry" />
        </mxCell>
        <mxCell id="Czym6EZmPw_4Vy8k2Iwa-75" value="&lt;span style=&quot;font-size: 36px&quot;&gt;&lt;b&gt;F 6&lt;/b&gt;&lt;br&gt;&lt;/span&gt;" style="text;html=1;strokeColor=none;fillColor=none;align=center;verticalAlign=middle;whiteSpace=wrap;rounded=0;" vertex="1" parent="1">
          <mxGeometry x="758" y="360" width="80" height="80" as="geometry" />
        </mxCell>
        <mxCell id="Czym6EZmPw_4Vy8k2Iwa-76" value="&lt;span style=&quot;font-size: 36px&quot;&gt;&lt;b&gt;G 7&lt;/b&gt;&lt;br&gt;&lt;/span&gt;" style="text;html=1;strokeColor=none;fillColor=none;align=center;verticalAlign=middle;whiteSpace=wrap;rounded=0;" vertex="1" parent="1">
          <mxGeometry x="850" y="360" width="80" height="80" as="geometry" />
        </mxCell>
        <mxCell id="Czym6EZmPw_4Vy8k2Iwa-77" value="&lt;span style=&quot;font-size: 36px&quot;&gt;&lt;b&gt;C 8&lt;/b&gt;&lt;br&gt;&lt;/span&gt;" style="text;html=1;strokeColor=none;fillColor=none;align=center;verticalAlign=middle;whiteSpace=wrap;rounded=0;" vertex="1" parent="1">
          <mxGeometry x="940" y="360" width="80" height="80" as="geometry" />
        </mxCell>
        <mxCell id="Czym6EZmPw_4Vy8k2Iwa-78" value="&lt;span style=&quot;font-size: 36px&quot;&gt;&lt;b&gt;R 9&lt;/b&gt;&lt;br&gt;&lt;/span&gt;" style="text;html=1;strokeColor=none;fillColor=none;align=center;verticalAlign=middle;whiteSpace=wrap;rounded=0;" vertex="1" parent="1">
          <mxGeometry x="1030" y="360" width="80" height="80" as="geometry" />
        </mxCell>
        <mxCell id="Czym6EZmPw_4Vy8k2Iwa-79" value="&lt;span style=&quot;font-size: 36px&quot;&gt;&lt;b&gt;L 0&lt;/b&gt;&lt;br&gt;&lt;/span&gt;" style="text;html=1;strokeColor=none;fillColor=none;align=center;verticalAlign=middle;whiteSpace=wrap;rounded=0;" vertex="1" parent="1">
          <mxGeometry x="1120" y="370" width="80" height="80" as="geometry" />
        </mxCell>
        <mxCell id="Czym6EZmPw_4Vy8k2Iwa-80" value="&lt;span style=&quot;font-size: 36px&quot;&gt;&lt;b&gt;D =&lt;/b&gt;&lt;br&gt;&lt;/span&gt;" style="text;html=1;strokeColor=none;fillColor=none;align=center;verticalAlign=middle;whiteSpace=wrap;rounded=0;" vertex="1" parent="1">
          <mxGeometry x="763" y="450" width="80" height="80" as="geometry" />
        </mxCell>
        <mxCell id="Czym6EZmPw_4Vy8k2Iwa-81" value="&lt;span style=&quot;font-size: 36px&quot;&gt;&lt;b&gt;H )&lt;/b&gt;&lt;br&gt;&lt;/span&gt;" style="text;html=1;strokeColor=none;fillColor=none;align=center;verticalAlign=middle;whiteSpace=wrap;rounded=0;" vertex="1" parent="1">
          <mxGeometry x="855" y="450" width="80" height="80" as="geometry" />
        </mxCell>
        <mxCell id="Czym6EZmPw_4Vy8k2Iwa-82" value="&lt;span style=&quot;font-size: 36px&quot;&gt;&lt;b&gt;T }&lt;/b&gt;&lt;br&gt;&lt;/span&gt;" style="text;html=1;strokeColor=none;fillColor=none;align=center;verticalAlign=middle;whiteSpace=wrap;rounded=0;" vertex="1" parent="1">
          <mxGeometry x="945" y="450" width="80" height="80" as="geometry" />
        </mxCell>
        <mxCell id="Czym6EZmPw_4Vy8k2Iwa-83" value="&lt;span style=&quot;font-size: 36px&quot;&gt;&lt;b&gt;N ]&lt;/b&gt;&lt;br&gt;&lt;/span&gt;" style="text;html=1;strokeColor=none;fillColor=none;align=center;verticalAlign=middle;whiteSpace=wrap;rounded=0;" vertex="1" parent="1">
          <mxGeometry x="1035" y="450" width="80" height="80" as="geometry" />
        </mxCell>
        <mxCell id="Czym6EZmPw_4Vy8k2Iwa-84" value="&lt;span style=&quot;font-size: 36px&quot;&gt;&lt;b&gt;S |&lt;/b&gt;&lt;br&gt;&lt;/span&gt;" style="text;html=1;strokeColor=none;fillColor=none;align=center;verticalAlign=middle;whiteSpace=wrap;rounded=0;" vertex="1" parent="1">
          <mxGeometry x="1125" y="460" width="80" height="80" as="geometry" />
        </mxCell>
        <mxCell id="Czym6EZmPw_4Vy8k2Iwa-85" value="&lt;span style=&quot;font-size: 36px&quot;&gt;&lt;b&gt;B ~&lt;/b&gt;&lt;br&gt;&lt;/span&gt;" style="text;html=1;strokeColor=none;fillColor=none;align=center;verticalAlign=middle;whiteSpace=wrap;rounded=0;" vertex="1" parent="1">
          <mxGeometry x="760" y="540" width="80" height="80" as="geometry" />
        </mxCell>
        <mxCell id="Czym6EZmPw_4Vy8k2Iwa-86" value="&lt;span style=&quot;font-size: 36px&quot;&gt;&lt;b&gt;M \&lt;/b&gt;&lt;br&gt;&lt;/span&gt;" style="text;html=1;strokeColor=none;fillColor=none;align=center;verticalAlign=middle;whiteSpace=wrap;rounded=0;" vertex="1" parent="1">
          <mxGeometry x="852" y="540" width="80" height="80" as="geometry" />
        </mxCell>
        <mxCell id="Czym6EZmPw_4Vy8k2Iwa-87" value="&lt;span style=&quot;font-size: 36px&quot;&gt;&lt;b&gt;W %&lt;/b&gt;&lt;br&gt;&lt;/span&gt;" style="text;html=1;strokeColor=none;fillColor=none;align=center;verticalAlign=middle;whiteSpace=wrap;rounded=0;" vertex="1" parent="1">
          <mxGeometry x="942" y="540" width="80" height="80" as="geometry" />
        </mxCell>
        <mxCell id="Czym6EZmPw_4Vy8k2Iwa-88" value="&lt;span style=&quot;font-size: 36px&quot;&gt;&lt;b&gt;V _&lt;/b&gt;&lt;br&gt;&lt;/span&gt;" style="text;html=1;strokeColor=none;fillColor=none;align=center;verticalAlign=middle;whiteSpace=wrap;rounded=0;" vertex="1" parent="1">
          <mxGeometry x="1032" y="540" width="80" height="80" as="geometry" />
        </mxCell>
        <mxCell id="Czym6EZmPw_4Vy8k2Iwa-89" value="&lt;span style=&quot;font-size: 36px&quot;&gt;&lt;b&gt;Z #&lt;/b&gt;&lt;br&gt;&lt;/span&gt;" style="text;html=1;strokeColor=none;fillColor=none;align=center;verticalAlign=middle;whiteSpace=wrap;rounded=0;" vertex="1" parent="1">
          <mxGeometry x="1122" y="550" width="80" height="80" as="geometry" />
        </mxCell>
        <mxCell id="Czym6EZmPw_4Vy8k2Iwa-90" value="&lt;span style=&quot;font-size: 36px&quot;&gt;&lt;b&gt;Ctrl&lt;/b&gt;&lt;br&gt;&lt;/span&gt;" style="text;html=1;strokeColor=none;fillColor=none;align=center;verticalAlign=middle;whiteSpace=wrap;rounded=0;rotation=30;" vertex="1" parent="1">
          <mxGeometry x="426" y="680" width="80" height="80" as="geometry" />
        </mxCell>
        <mxCell id="Czym6EZmPw_4Vy8k2Iwa-91" value="&lt;span style=&quot;font-size: 36px&quot;&gt;&lt;b&gt;Alt&lt;/b&gt;&lt;br&gt;&lt;/span&gt;" style="text;html=1;strokeColor=none;fillColor=none;align=center;verticalAlign=middle;whiteSpace=wrap;rounded=0;rotation=30;" vertex="1" parent="1">
          <mxGeometry x="501" y="723" width="80" height="80" as="geometry" />
        </mxCell>
        <mxCell id="Czym6EZmPw_4Vy8k2Iwa-92" value="&lt;span style=&quot;font-size: 36px&quot;&gt;&lt;b&gt;&lt;font color=&quot;#cc0000&quot;&gt;R-&lt;br&gt;Alt&lt;/font&gt;&lt;/b&gt;&lt;br&gt;&lt;/span&gt;" style="text;html=1;strokeColor=none;fillColor=none;align=center;verticalAlign=middle;whiteSpace=wrap;rounded=0;rotation=30;" vertex="1" parent="1">
          <mxGeometry x="458" y="803" width="80" height="80" as="geometry" />
        </mxCell>
        <mxCell id="Czym6EZmPw_4Vy8k2Iwa-93" value="&lt;span style=&quot;font-size: 36px&quot;&gt;&lt;font color=&quot;#cc0000&quot;&gt;R-&lt;br&gt;&lt;/font&gt;&lt;font color=&quot;#cc0000&quot;&gt;Shift&lt;/font&gt;&lt;br&gt;&lt;/span&gt;" style="text;html=1;strokeColor=none;fillColor=none;align=center;verticalAlign=middle;whiteSpace=wrap;rounded=0;rotation=30;" vertex="1" parent="1">
          <mxGeometry x="417.74" y="883.47" width="73" height="76.75" as="geometry" />
        </mxCell>
        <mxCell id="Czym6EZmPw_4Vy8k2Iwa-94" value="&lt;b&gt;&lt;font style=&quot;font-size: 22px&quot;&gt;Keypad&lt;/font&gt;&lt;/b&gt;" style="text;html=1;strokeColor=none;fillColor=none;align=center;verticalAlign=middle;whiteSpace=wrap;rounded=0;rotation=30;" vertex="1" parent="1">
          <mxGeometry x="362" y="794" width="80" height="80" as="geometry" />
        </mxCell>
        <mxCell id="Czym6EZmPw_4Vy8k2Iwa-95" value="&lt;span style=&quot;font-size: 36px&quot;&gt;Shift&lt;br&gt;&lt;/span&gt;" style="text;html=1;strokeColor=none;fillColor=none;align=center;verticalAlign=middle;whiteSpace=wrap;rounded=0;rotation=30;" vertex="1" parent="1">
          <mxGeometry x="282" y="749" width="80" height="80" as="geometry" />
        </mxCell>
        <mxCell id="Czym6EZmPw_4Vy8k2Iwa-96" value="&lt;font style=&quot;font-size: 18px&quot;&gt;Windows&lt;/font&gt;" style="text;html=1;strokeColor=none;fillColor=none;align=center;verticalAlign=middle;whiteSpace=wrap;rounded=0;rotation=-30;" vertex="1" parent="1">
          <mxGeometry x="621" y="723" width="80" height="80" as="geometry" />
        </mxCell>
        <mxCell id="Czym6EZmPw_4Vy8k2Iwa-97" value="&lt;span style=&quot;font-size: 26px&quot;&gt;Back-&lt;br&gt;space&lt;br&gt;&lt;/span&gt;" style="text;html=1;strokeColor=none;fillColor=none;align=center;verticalAlign=middle;whiteSpace=wrap;rounded=0;rotation=-30;" vertex="1" parent="1">
          <mxGeometry x="696" y="680" width="80" height="80" as="geometry" />
        </mxCell>
        <mxCell id="Czym6EZmPw_4Vy8k2Iwa-98" value="&lt;b&gt;&lt;font style=&quot;font-size: 22px&quot;&gt;Enter&lt;br&gt;&lt;/font&gt;&lt;/b&gt;" style="text;html=1;strokeColor=none;fillColor=none;align=center;verticalAlign=middle;whiteSpace=wrap;rounded=0;rotation=-30;" vertex="1" parent="1">
          <mxGeometry x="763" y="794" width="80" height="80" as="geometry" />
        </mxCell>
        <mxCell id="Czym6EZmPw_4Vy8k2Iwa-99" value="&lt;b&gt;&lt;font style=&quot;font-size: 22px&quot;&gt;Space&lt;br&gt;Tab&lt;br&gt;&lt;/font&gt;&lt;/b&gt;" style="text;html=1;strokeColor=none;fillColor=none;align=center;verticalAlign=middle;whiteSpace=wrap;rounded=0;rotation=-30;" vertex="1" parent="1">
          <mxGeometry x="840" y="750" width="80" height="80" as="geometry" />
        </mxCell>
        <mxCell id="Czym6EZmPw_4Vy8k2Iwa-100" value="&lt;b&gt;&lt;font style=&quot;font-size: 22px&quot;&gt;Escape&lt;br&gt;&lt;/font&gt;&lt;/b&gt;" style="text;html=1;strokeColor=none;fillColor=none;align=center;verticalAlign=middle;whiteSpace=wrap;rounded=0;rotation=-30;" vertex="1" parent="1">
          <mxGeometry x="665" y="800" width="80" height="80" as="geometry" />
        </mxCell>
        <mxCell id="Czym6EZmPw_4Vy8k2Iwa-101" value="&lt;b&gt;&lt;font style=&quot;font-size: 22px&quot;&gt;Caps-&lt;br&gt;lock&lt;br&gt;&lt;/font&gt;&lt;/b&gt;" style="text;html=1;strokeColor=none;fillColor=none;align=center;verticalAlign=middle;whiteSpace=wrap;rounded=0;rotation=-30;" vertex="1" parent="1">
          <mxGeometry x="709" y="874" width="80" height="80" as="geometry" />
        </mxCell>
        <mxCell id="Czym6EZmPw_4Vy8k2Iwa-102" value="&lt;font color=&quot;#cc0000&quot; style=&quot;font-size: 18px&quot;&gt;@&lt;/font&gt;" style="text;html=1;strokeColor=none;fillColor=none;align=center;verticalAlign=middle;whiteSpace=wrap;rounded=0;rotation=0;" vertex="1" parent="1">
          <mxGeometry x="120" y="570" width="73" height="76.75" as="geometry" />
        </mxCell>
        <mxCell id="Czym6EZmPw_4Vy8k2Iwa-103" value="&lt;font color=&quot;#cc0000&quot; style=&quot;font-size: 18px&quot;&gt;&lt;b&gt;Ö&lt;/b&gt;&lt;/font&gt;" style="text;html=1;strokeColor=none;fillColor=none;align=center;verticalAlign=middle;whiteSpace=wrap;rounded=0;rotation=0;" vertex="1" parent="1">
          <mxGeometry x="120" y="480" width="73" height="76.75" as="geometry" />
        </mxCell>
        <mxCell id="Czym6EZmPw_4Vy8k2Iwa-104" value="&lt;font color=&quot;#cc0000&quot; style=&quot;font-size: 18px&quot;&gt;&lt;b&gt;Ä&lt;/b&gt;&lt;/font&gt;" style="text;html=1;strokeColor=none;fillColor=none;align=center;verticalAlign=middle;whiteSpace=wrap;rounded=0;rotation=0;" vertex="1" parent="1">
          <mxGeometry x="30" y="493.25" width="73" height="76.75" as="geometry" />
        </mxCell>
        <mxCell id="Czym6EZmPw_4Vy8k2Iwa-105" value="&lt;font color=&quot;#cc0000&quot; style=&quot;font-size: 18px&quot;&gt;&lt;b&gt;Ü&lt;/b&gt;&lt;/font&gt;" style="text;html=1;strokeColor=none;fillColor=none;align=center;verticalAlign=middle;whiteSpace=wrap;rounded=0;rotation=0;" vertex="1" parent="1">
          <mxGeometry x="300" y="480" width="73" height="76.75" as="geometry" />
        </mxCell>
        <mxCell id="Czym6EZmPw_4Vy8k2Iwa-106" value="&lt;font color=&quot;#cc0000&quot; style=&quot;font-size: 18px&quot;&gt;&lt;b&gt;$&lt;/b&gt;&lt;/font&gt;" style="text;html=1;strokeColor=none;fillColor=none;align=center;verticalAlign=middle;whiteSpace=wrap;rounded=0;rotation=0;" vertex="1" parent="1">
          <mxGeometry x="789" y="480" width="73" height="76.75" as="geometry" />
        </mxCell>
      </root>
    </mxGraphModel>
  </diagram>
</mxfile>
